<?xml version="1.0" encoding="UTF-8" standalone="no"?>
<!DOCTYPE svg PUBLIC "-//W3C//DTD SVG 1.1//EN" "http://www.w3.org/Graphics/SVG/1.1/DTD/svg11.dtd">
<svg width="100%" height="100%" viewBox="0 0 4630 1378" version="1.1" xmlns="http://www.w3.org/2000/svg" xmlns:xlink="http://www.w3.org/1999/xlink" xml:space="preserve" xmlns:serif="http://www.serif.com/" style="fill-rule:evenodd;clip-rule:evenodd;stroke-linejoin:round;stroke-miterlimit:2;">
    <g transform="matrix(1,0,0,1,0,-13407.4)">
        <g id="Logo" transform="matrix(1.35334,0,0,0.135579,-8486.68,13415.4)">
            <rect x="6270.9" y="-59.055" width="3421.13" height="10159.1" style="fill:none;"/>
            <g transform="matrix(0.860492,0,0,1.48651,1594.08,1130.87)">
                <g transform="matrix(1.71023,0,0,9.88208,4691.65,-10587.5)">
                    <text x="1116.85px" y="1306.91px" style="font-family:'Poppins-SemiBold', 'Poppins SemiBold';font-weight:600;font-size:231.473px;fill:rgb(18,8,134);">Obytná čtvrť</text>
                </g>
                <g transform="matrix(0.738911,0,0,4.26959,6258.65,-3456.26)">
                    <text x="464.282px" y="1889.33px" style="font-family:'Poppins-Black', 'Poppins Black';font-weight:900;font-size:537.084px;fill:rgb(168,140,101);">DVORCE</text>
                </g>
                <g transform="matrix(1.10671,0,0,8.8653,5663.4,173.827)">
                    <rect x="0" y="0" width="761.999" height="549.655" style="fill:rgb(168,140,101);"/>
                </g>
                <g transform="matrix(0.897346,0,0,7.18816,5743.17,634.749)">
                    <rect x="0" y="0" width="761.999" height="549.655" style="fill:white;"/>
                </g>
                <g transform="matrix(0.231639,0,0,1.85554,5865.89,1307.09)">
                    <rect x="0" y="0" width="761.999" height="549.655" style="fill:rgb(18,8,134);"/>
                </g>
            </g>
        </g>
        <g id="Layer-1" serif:id="Layer 1">
        </g>
        <g id="Layer-2" serif:id="Layer 2">
        </g>
        <g id="Layer-3" serif:id="Layer 3">
        </g>
        <g id="Layer-7" serif:id="Layer 7">
        </g>
        <g id="Layer-8" serif:id="Layer 8">
        </g>
        <g id="Layer-9" serif:id="Layer 9">
        </g>
        <g id="Layer-10" serif:id="Layer 10">
        </g>
    </g>
</svg>
