<?xml version="1.0" encoding="UTF-8" standalone="no"?>
<!-- Created with Inkscape (http://www.inkscape.org/) -->

<svg
   xmlns:dc="http://purl.org/dc/elements/1.1/"
   xmlns:cc="http://creativecommons.org/ns#"
   xmlns:rdf="http://www.w3.org/1999/02/22-rdf-syntax-ns#"
   xmlns:svg="http://www.w3.org/2000/svg"
   xmlns="http://www.w3.org/2000/svg"
   xmlns:sodipodi="http://sodipodi.sourceforge.net/DTD/sodipodi-0.dtd"
   xmlns:inkscape="http://www.inkscape.org/namespaces/inkscape"
   version="1.1"
   id="svg2"
   xml:space="preserve"
   width="1481.5867"
   height="440.75601"
   viewBox="0 0 1481.5867 440.75601"
   sodipodi:docname="logoKrivky.svg"
   inkscape:version="0.92.3 (2405546, 2018-03-11)"><metadata
     id="metadata8"><rdf:RDF><cc:Work
         rdf:about=""><dc:format>image/svg+xml</dc:format><dc:type
           rdf:resource="http://purl.org/dc/dcmitype/StillImage" /><dc:title></dc:title></cc:Work></rdf:RDF></metadata><defs
     id="defs6" /><sodipodi:namedview
     pagecolor="#ffffff"
     bordercolor="#666666"
     borderopacity="1"
     objecttolerance="10"
     gridtolerance="10"
     guidetolerance="10"
     inkscape:pageopacity="0"
     inkscape:pageshadow="2"
     inkscape:window-width="1280"
     inkscape:window-height="772"
     id="namedview4"
     showgrid="false"
     inkscape:zoom="0.26930588"
     inkscape:cx="699.94759"
     inkscape:cy="79.274514"
     inkscape:window-x="0"
     inkscape:window-y="0"
     inkscape:window-maximized="1"
     inkscape:current-layer="g10" /><g
     id="g10"
     inkscape:groupmode="layer"
     inkscape:label="Dvorce LOGO"
     transform="matrix(1.3333333,0,0,-1.3333333,0,440.756)"><path
       d="m 369.771,258.491 c 7.303,0 13.923,-1.697 19.861,-5.09 5.938,-3.393 10.621,-8.132 14.051,-14.217 3.43,-6.086 5.145,-12.964 5.145,-20.635 0,-7.671 -1.715,-14.568 -5.145,-20.69 -3.43,-6.123 -8.113,-10.88 -14.051,-14.273 -5.938,-3.393 -12.558,-5.09 -19.861,-5.09 -7.302,0 -13.922,1.697 -19.86,5.09 -5.938,3.393 -10.621,8.15 -14.051,14.273 -3.43,6.122 -5.145,13.019 -5.145,20.69 0,7.671 1.715,14.549 5.145,20.635 3.43,6.085 8.113,10.824 14.051,14.217 5.938,3.393 12.558,5.09 19.86,5.09 z m 0,-14.384 c -4.573,0 -8.593,-1.033 -12.06,-3.098 -3.466,-2.065 -6.177,-5.034 -8.132,-8.907 -1.954,-3.872 -2.932,-8.39 -2.932,-13.553 0,-5.164 0.978,-9.681 2.932,-13.554 1.955,-3.872 4.666,-6.841 8.132,-8.907 3.467,-2.065 7.487,-3.098 12.06,-3.098 4.574,0 8.594,1.033 12.06,3.098 3.467,2.066 6.178,5.035 8.133,8.907 1.954,3.873 2.932,8.39 2.932,13.554 0,5.163 -0.978,9.681 -2.932,13.553 -1.955,3.873 -4.666,6.842 -8.133,8.907 -3.466,2.065 -7.486,3.098 -12.06,3.098 z"
       style="fill:#332e7b;fill-opacity:1;fill-rule:nonzero;stroke:none"
       id="path12"
       inkscape:connector-curvature="0" /><path
       d="m 457.179,241.341 c 5.163,0 9.81,-1.254 13.941,-3.762 4.13,-2.508 7.357,-6.14 9.681,-10.898 2.323,-4.758 3.485,-10.345 3.485,-16.762 0,-6.418 -1.162,-12.005 -3.485,-16.763 -2.324,-4.757 -5.551,-8.39 -9.681,-10.898 -4.131,-2.508 -8.778,-3.762 -13.941,-3.762 -5.163,0 -9.571,1.236 -13.222,3.707 -3.651,2.471 -6.251,5.772 -7.8,9.902 v -12.834 h -15.601 v 81.875 h 15.601 v -33.303 c 1.549,4.13 4.149,7.413 7.8,9.847 3.651,2.434 8.059,3.651 13.222,3.651 z m -4.868,-13.609 c -4.721,0 -8.612,-1.604 -11.673,-4.813 -3.061,-3.209 -4.592,-7.542 -4.592,-13 0,-5.385 1.531,-9.682 4.592,-12.89 3.061,-3.209 6.952,-4.813 11.673,-4.813 4.868,0 8.777,1.567 11.728,4.702 2.95,3.135 4.425,7.469 4.425,13.001 0,5.532 -1.475,9.884 -4.425,13.055 -2.951,3.172 -6.86,4.758 -11.728,4.758 z"
       style="fill:#332e7b;fill-opacity:1;fill-rule:nonzero;stroke:none"
       id="path14"
       inkscape:connector-curvature="0" /><path
       d="m 505.861,240.567 16.707,-41.602 15.49,41.602 h 17.15 L 517.7,150.061 h -17.26 l 13.83,30.98 -25.779,59.526 z"
       style="fill:#332e7b;fill-opacity:1;fill-rule:nonzero;stroke:none"
       id="path16"
       inkscape:connector-curvature="0" /><path
       d="m 595.26,192.658 v -13.387 h -8.187 c -6.86,0 -12.116,1.659 -15.767,4.979 -3.651,3.319 -5.477,8.851 -5.477,16.596 V 227.4 h -8.519 v 13.167 h 8.519 v 15.158 h 15.601 v -15.158 h 13.72 V 227.4 h -13.72 v -26.775 c 0,-2.951 0.59,-5.016 1.77,-6.196 1.18,-1.18 3.172,-1.771 5.975,-1.771 z"
       style="fill:#332e7b;fill-opacity:1;fill-rule:nonzero;stroke:none"
       id="path18"
       inkscape:connector-curvature="0" /><path
       d="m 642.947,241.452 c 7.081,0 12.724,-2.324 16.928,-6.971 4.205,-4.647 6.307,-11.175 6.307,-19.583 v -35.627 h -15.49 v 33.856 c 0,4.869 -1.254,8.649 -3.762,11.341 -2.508,2.692 -5.938,4.039 -10.29,4.039 -4.425,0 -7.966,-1.439 -10.621,-4.316 -2.656,-2.876 -3.983,-7.007 -3.983,-12.391 v -32.529 h -15.601 v 61.296 h 15.601 v -12.282 c 1.622,4.131 4.296,7.358 8.021,9.681 3.725,2.324 8.022,3.486 12.89,3.486 z"
       style="fill:#332e7b;fill-opacity:1;fill-rule:nonzero;stroke:none"
       id="path20"
       inkscape:connector-curvature="0" /><path
       d="m 703.911,241.341 c 5.163,0 9.589,-1.217 13.277,-3.651 3.688,-2.434 6.307,-5.717 7.856,-9.847 v 12.724 h 15.49 v -61.296 h -15.49 v 12.834 c -1.549,-4.13 -4.168,-7.431 -7.856,-9.902 -3.688,-2.471 -8.114,-3.707 -13.277,-3.707 -5.163,0 -9.81,1.254 -13.941,3.762 -4.131,2.508 -7.358,6.141 -9.681,10.898 -2.324,4.758 -3.485,10.345 -3.485,16.763 0,6.417 1.161,12.004 3.485,16.762 2.323,4.758 5.55,8.39 9.681,10.898 4.131,2.508 8.778,3.762 13.941,3.762 z m 4.868,-13.609 c -4.868,0 -8.777,-1.586 -11.728,-4.758 -2.95,-3.171 -4.426,-7.523 -4.426,-13.055 0,-5.532 1.476,-9.866 4.426,-13.001 2.951,-3.135 6.86,-4.702 11.728,-4.702 4.721,0 8.612,1.604 11.673,4.813 3.061,3.208 4.592,7.505 4.592,12.89 0,5.458 -1.531,9.791 -4.592,13 -3.061,3.209 -6.952,4.813 -11.673,4.813 z m 16.707,29.431 -25.448,-11.949 v 10.621 l 25.448,13.277 z"
       style="fill:#332e7b;fill-opacity:1;fill-rule:nonzero;stroke:none"
       id="path22"
       inkscape:connector-curvature="0" /><path
       d="m 806.366,241.341 c 7.892,0 14.475,-2.139 19.749,-6.417 5.274,-4.278 8.575,-10.106 9.903,-17.482 h -16.486 c -0.664,3.246 -2.176,5.809 -4.536,7.69 -2.361,1.881 -5.348,2.821 -8.962,2.821 -4.131,0 -7.579,-1.53 -10.345,-4.591 -2.766,-3.061 -4.149,-7.542 -4.149,-13.443 0,-5.901 1.383,-10.382 4.149,-13.443 2.766,-3.061 6.214,-4.592 10.345,-4.592 3.614,0 6.601,0.94 8.962,2.821 2.36,1.881 3.872,4.444 4.536,7.69 h 16.486 c -1.328,-7.376 -4.629,-13.203 -9.903,-17.481 -5.274,-4.279 -11.857,-6.418 -19.749,-6.418 -5.975,0 -11.286,1.273 -15.933,3.817 -4.647,2.545 -8.261,6.178 -10.843,10.899 -2.581,4.72 -3.872,10.289 -3.872,16.707 0,6.417 1.291,12.004 3.872,16.762 2.582,4.758 6.196,8.39 10.843,10.898 4.647,2.508 9.958,3.762 15.933,3.762 z m 15.932,13.72 -16.375,-9.184 -16.486,9.184 v 10.511 l 16.486,-9.405 16.375,9.405 z"
       style="fill:#332e7b;fill-opacity:1;fill-rule:nonzero;stroke:none"
       id="path24"
       inkscape:connector-curvature="0" /><path
       d="m 879.832,192.658 v -13.387 h -8.187 c -6.86,0 -12.116,1.659 -15.767,4.979 -3.651,3.319 -5.477,8.851 -5.477,16.596 V 227.4 h -8.519 v 13.167 h 8.519 v 15.158 h 15.601 v -15.158 h 13.719 V 227.4 h -13.719 v -26.775 c 0,-2.951 0.59,-5.016 1.77,-6.196 1.18,-1.18 3.172,-1.771 5.975,-1.771 z"
       style="fill:#332e7b;fill-opacity:1;fill-rule:nonzero;stroke:none"
       id="path26"
       inkscape:connector-curvature="0" /><path
       d="m 917.672,194.871 15.49,45.696 h 16.596 l -22.682,-61.296 h -19.03 l -22.682,61.296 h 16.707 z"
       style="fill:#332e7b;fill-opacity:1;fill-rule:nonzero;stroke:none"
       id="path28"
       inkscape:connector-curvature="0" /><path
       d="m 973.989,228.838 c 2.286,3.91 5.31,6.989 9.072,9.239 3.762,2.25 7.966,3.375 12.613,3.375 v -16.707 h -4.536 c -11.433,0 -17.149,-5.311 -17.149,-15.933 v -29.541 h -15.601 v 61.296 h 15.601 z"
       style="fill:#332e7b;fill-opacity:1;fill-rule:nonzero;stroke:none"
       id="path30"
       inkscape:connector-curvature="0" /><path
       d="m 1041.48,271.104 c 1.25,-4.057 1.88,-7.819 1.88,-11.286 0,-4.352 -1.18,-7.745 -3.54,-10.179 -2.36,-2.434 -5.83,-3.651 -10.4,-3.651 v 6.085 c 3.76,0 5.64,1.512 5.64,4.537 v 2.434 h -6.41 v 12.06 z m -18.26,-70.479 c 0,-2.951 0.59,-5.016 1.77,-6.196 1.18,-1.18 3.18,-1.771 5.98,-1.771 h 6.08 v -13.387 h -8.18 c -6.86,0 -12.12,1.659 -15.77,4.979 -3.65,3.319 -5.48,8.851 -5.48,16.596 V 227.4 h -8.516 v 13.167 h 8.516 v 15.158 h 15.6 v -15.158 h 13.72 V 227.4 h -13.72 z"
       style="fill:#332e7b;fill-opacity:1;fill-rule:nonzero;stroke:none"
       id="path32"
       inkscape:connector-curvature="0" /><path
       d="m 405.152,108.332 c 0,-7.468 -1.664,-14.197 -4.991,-20.1866 -3.328,-5.9895 -8.079,-10.7035 -14.253,-14.142 -6.175,-3.4384 -13.366,-5.1576 -21.574,-5.1576 h -32.72 v 78.5292 h 32.72 c 8.208,0 15.399,-1.663 21.574,-4.991 6.174,-3.327 10.925,-7.949 14.253,-13.865 3.327,-5.915 4.991,-12.644 4.991,-20.187 z M 362.116,90.8074 c 5.546,0 9.946,1.5159 13.199,4.5477 3.254,3.0317 4.881,7.3579 4.881,12.9769 0,5.62 -1.627,9.946 -4.881,12.978 -3.253,3.032 -7.653,4.547 -13.199,4.547 h -5.879 V 90.8074 Z"
       style="fill:#9b815e;fill-opacity:1;fill-rule:nonzero;stroke:none"
       id="path34"
       inkscape:connector-curvature="0" /><path
       d="M 434.656,147.375 450.85,93.3586 466.933,147.375 H 493.11 L 466.711,68.8458 H 434.878 L 408.48,147.375 Z"
       style="fill:#9b815e;fill-opacity:1;fill-rule:nonzero;stroke:none"
       id="path36"
       inkscape:connector-curvature="0" /><path
       d="m 536.922,148.706 c 7.395,0 14.161,-1.719 20.298,-5.157 6.137,-3.439 10.999,-8.227 14.586,-14.364 3.586,-6.138 5.379,-13.051 5.379,-20.742 0,-7.69 -1.793,-14.6038 -5.379,-20.7412 -3.587,-6.1375 -8.467,-10.9439 -14.641,-14.4193 -6.175,-3.4754 -12.922,-5.2132 -20.243,-5.2132 -7.394,0 -14.179,1.7378 -20.353,5.2132 -6.175,3.4754 -11.074,8.2818 -14.697,14.4193 -3.623,6.1374 -5.435,13.0512 -5.435,20.7412 0,7.691 1.812,14.604 5.435,20.742 3.623,6.137 8.522,10.925 14.697,14.364 6.174,3.438 12.959,5.157 20.353,5.157 z m 0,-22.738 c -4.954,0 -8.762,-1.571 -11.424,-4.714 -2.662,-3.142 -3.993,-7.413 -3.993,-12.811 0,-5.324 1.331,-9.5571 3.993,-12.6997 2.662,-3.1427 6.47,-4.714 11.424,-4.714 4.88,0 8.652,1.5713 11.314,4.714 2.662,3.1426 3.993,7.3757 3.993,12.6997 0,5.398 -1.331,9.669 -3.993,12.811 -2.662,3.143 -6.434,4.714 -11.314,4.714 z"
       style="fill:#9b815e;fill-opacity:1;fill-rule:nonzero;stroke:none"
       id="path38"
       inkscape:connector-curvature="0" /><path
       d="m 625.545,68.8458 -14.863,28.173 v -28.173 h -24.623 v 78.5292 h 36.602 c 6.36,0 11.795,-1.127 16.305,-3.383 4.511,-2.255 7.894,-5.324 10.149,-9.206 2.256,-3.882 3.383,-8.263 3.383,-13.143 0,-5.251 -1.46,-9.909 -4.381,-13.976 -2.921,-4.067 -7.117,-6.988 -12.589,-8.7626 l 17.081,-30.0586 z m -14.863,44.5892 h 9.761 c 2.366,0 4.141,0.536 5.324,1.608 1.183,1.072 1.775,2.754 1.775,5.047 0,2.07 -0.61,3.697 -1.83,4.88 -1.221,1.183 -2.977,1.775 -5.269,1.775 h -9.761 z"
       style="fill:#9b815e;fill-opacity:1;fill-rule:nonzero;stroke:none"
       id="path40"
       inkscape:connector-curvature="0" /><path
       d="m 696.976,148.152 c 6.803,0 12.885,-1.276 18.246,-3.827 5.361,-2.551 9.724,-6.156 13.088,-10.814 3.365,-4.659 5.602,-10.094 6.711,-16.305 h -25.955 c -1.183,2.588 -2.865,4.603 -5.047,6.045 -2.181,1.442 -4.677,2.163 -7.487,2.163 -4.14,0 -7.413,-1.553 -9.816,-4.659 -2.403,-3.106 -3.605,-7.283 -3.605,-12.533 0,-5.251 1.202,-9.4285 3.605,-12.5342 2.403,-3.1057 5.676,-4.6585 9.816,-4.6585 2.81,0 5.306,0.7209 7.487,2.1629 2.182,1.4419 3.864,3.4569 5.047,6.045 h 25.955 c -1.109,-6.2114 -3.346,-11.6464 -6.711,-16.3049 -3.364,-4.6585 -7.727,-8.2634 -13.088,-10.8145 -5.361,-2.5511 -11.443,-3.8266 -18.246,-3.8266 -7.912,0 -14.789,1.6822 -20.631,5.0467 -5.841,3.3645 -10.333,8.0785 -13.476,14.142 -3.143,6.0635 -4.714,12.9771 -4.714,20.7421 0,7.764 1.571,14.678 4.714,20.741 3.143,6.064 7.635,10.778 13.476,14.142 5.842,3.365 12.719,5.047 20.631,5.047 z"
       style="fill:#9b815e;fill-opacity:1;fill-rule:nonzero;stroke:none"
       id="path42"
       inkscape:connector-curvature="0" /><path
       d="m 768.518,127.854 v -9.761 H 792.92 V 99.5699 H 768.518 V 88.4782 h 27.729 V 68.8458 h -52.353 v 78.5292 h 52.353 v -19.521 z"
       style="fill:#9b815e;fill-opacity:1;fill-rule:nonzero;stroke:none"
       id="path44"
       inkscape:connector-curvature="0" /><path
       d="m 63.8196,47.743 h 235.698 V 283.441 H 63.8196 Z"
       style="fill:#9b815e;fill-opacity:1;fill-rule:evenodd;stroke:none"
       id="path46"
       inkscape:connector-curvature="0" /><path
       d="m 86.1141,70.0375 h 191.108 v 191.108 H 86.1141 Z"
       style="fill:#ffffff;fill-opacity:1;fill-rule:evenodd;stroke:none"
       id="path48"
       inkscape:connector-curvature="0" /><path
       d="m 120.412,179.293 h 49.3323 v 49.3323 H 120.412 Z"
       style="fill:#332e7b;fill-opacity:1;fill-rule:evenodd;stroke:none"
       id="path50"
       inkscape:connector-curvature="0" /></g></svg>